<svg width="16" height="16" viewBox="0 0 16 16" fill="none" xmlns="http://www.w3.org/2000/svg">
<path d="M13.3346 0.666748H2.66797C2.13754 0.666748 1.62883 0.877462 1.25376 1.25253C0.878682 1.62761 0.667969 2.13631 0.667969 2.66675V13.3334C0.667969 13.8638 0.878682 14.3726 1.25376 14.7476C1.62883 15.1227 2.13754 15.3334 2.66797 15.3334H13.3346C13.8651 15.3334 14.3738 15.1227 14.7488 14.7476C15.1239 14.3726 15.3346 13.8638 15.3346 13.3334V2.66675C15.3346 2.13631 15.1239 1.62761 14.7488 1.25253C14.3738 0.877462 13.8651 0.666748 13.3346 0.666748V0.666748ZM12.4726 5.13808L6.47263 11.1381C6.34762 11.2631 6.17808 11.3333 6.0013 11.3333C5.82453 11.3333 5.65499 11.2631 5.52997 11.1381L3.52997 9.13808C3.40853 9.01235 3.34133 8.84394 3.34285 8.66915C3.34437 8.49435 3.41448 8.32714 3.53809 8.20354C3.66169 8.07993 3.8289 8.00982 4.0037 8.0083C4.1785 8.00678 4.3469 8.07398 4.47264 8.19541L6.0013 9.72408L11.53 4.19541C11.5915 4.13174 11.665 4.08095 11.7464 4.04601C11.8277 4.01107 11.9152 3.99268 12.0037 3.99191C12.0922 3.99115 12.18 4.00801 12.2619 4.04153C12.3439 4.07505 12.4183 4.12456 12.4809 4.18715C12.5435 4.24975 12.593 4.32418 12.6265 4.40611C12.66 4.48804 12.6769 4.57583 12.6761 4.66435C12.6754 4.75287 12.657 4.84035 12.622 4.92168C12.5871 5.00302 12.5363 5.07658 12.4726 5.13808V5.13808Z" fill="#3084F2"/>
</svg>
