<svg width="16" height="16" viewBox="0 0 16 16" fill="none" xmlns="http://www.w3.org/2000/svg">
<path d="M3.83323 1.76398C5.0664 0.940001 6.51617 0.500143 7.99928 0.5C9.98675 0.505964 11.8911 1.29812 13.2965 2.7035C14.7019 4.10889 15.4941 6.0133 15.5 8.00079C15.4998 9.48388 15.06 10.9336 14.236 12.1668C13.4119 13.4001 12.2406 14.3614 10.8701 14.9291C9.49968 15.4968 7.99168 15.6453 6.53683 15.3559C5.08197 15.0665 3.7456 14.3522 2.6967 13.3033C1.64781 12.2544 0.933503 10.918 0.644114 9.46318C0.354725 8.00832 0.50325 6.50032 1.07091 5.12987C1.63856 3.75943 2.59986 2.58809 3.83323 1.76398ZM12 9.16667H12.5V8.66667V7.33333V6.83333H12H9.16667V4V3.5H8.66667H7.33334H6.83334V4V6.83333H4H3.5V7.33333V8.66667V9.16667H4H6.83334V12V12.5H7.33334H8.66667H9.16667V12V9.16667H12Z" fill="#3084F2" stroke="#3084F2"/>
</svg>
