<svg width="16" height="16" viewBox="0 0 16 16" fill="none" xmlns="http://www.w3.org/2000/svg">
<path d="M5.96825 4.3961L5.89757 4.83686L5.88001 4.83843L5.81434 5.21652C5.78498 5.38559 5.75663 5.54951 5.72897 5.70946C5.48647 7.1117 5.29657 8.20977 4.93407 9.81429L4.9339 9.81507C4.51901 11.6652 4.05799 12.8143 3.52549 13.6291C3.52661 13.625 3.52773 13.6208 3.52885 13.6165C3.68455 13.0307 3.87716 12.1245 4.11902 10.6914C4.35635 9.37298 4.52948 8.3107 4.68851 7.335C4.79805 6.66295 4.90089 6.03197 5.0134 5.38666L5.09079 4.94276L5.16956 4.58188C5.44106 3.33787 5.8201 2.42123 6.50553 1.69984C6.52917 1.67599 6.55291 1.65252 6.57672 1.62943C6.37294 2.21271 6.17761 3.09047 5.96825 4.3961ZM1.28212 15.1082C1.44345 15.1792 1.62808 15.2441 1.80966 15.279C1.50612 15.4393 1.25843 15.5 1.09564 15.5C0.928827 15.5 0.750207 15.4408 0.623982 15.3531C0.518327 15.2797 0.502386 15.2288 0.500244 15.2223L0.50032 15.2203V15.2109C0.50032 15.1878 0.513774 15.1174 0.585956 15.0052C0.629866 14.937 0.685983 14.8684 0.7478 14.8052C0.914385 14.9259 1.10258 15.0291 1.28212 15.1082ZM8.61473 0.672422C8.54521 0.627412 8.47297 0.5862 8.39828 0.550477C8.53968 0.516521 8.66727 0.5 8.77604 0.5C9.05537 0.5 9.24372 0.583261 9.35017 0.666909C9.44266 0.739587 9.45855 0.795718 9.46153 0.805809C9.45511 0.848843 9.4271 0.928049 9.35725 1.02622C9.30919 1.09377 9.25669 1.14856 9.21207 1.18698C9.01505 0.978167 8.81615 0.802844 8.61473 0.672422ZM14.4996 5.09505C14.4516 5.09505 14.4045 5.09927 14.3584 5.10697C14.3585 5.10691 14.3586 5.10685 14.3586 5.1068C14.7372 4.74953 14.9863 4.66797 15.2035 4.66797C15.32 4.66797 15.3819 4.70879 15.42 4.75349C15.4645 4.80569 15.504 4.89818 15.4997 5.02886C15.4962 5.13205 15.4447 5.24197 15.3545 5.33309C15.3186 5.36933 15.2821 5.39675 15.2501 5.41547C15.0676 5.21846 14.796 5.09505 14.4996 5.09505ZM12.2612 7.90267L12.2699 7.88996L12.7809 9.53746L12.781 9.53767C12.9239 9.99754 13.0613 10.3626 13.2104 10.6201C13.3442 10.851 13.5876 11.168 13.9992 11.168C14.0114 11.168 14.0235 11.1677 14.0355 11.1671C13.639 11.5063 13.325 11.6107 13.1232 11.6107C13.0606 11.6107 12.9637 11.592 12.8215 11.4087C12.6673 11.2099 12.499 10.862 12.331 10.2996L12.3309 10.2994L11.9238 8.9387L11.6092 7.88741L11.6003 7.9014L11.1826 6.56584C11.1826 6.56575 11.1826 6.56567 11.1825 6.56559C11.0378 6.10212 10.9176 5.7793 10.7952 5.56804C10.7324 5.45965 10.6488 5.34413 10.5293 5.25664C10.418 5.17526 10.2995 5.13524 10.1847 5.12354C10.2041 5.10619 10.2234 5.08928 10.2426 5.07281C10.6109 4.75677 10.8608 4.66797 10.9851 4.66797C10.986 4.66797 10.9871 4.6679 10.9884 4.66783C11.0081 4.66665 11.0692 4.66302 11.1934 4.8717C11.3368 5.11248 11.4794 5.50104 11.6732 6.09725L11.6733 6.09756L11.9451 6.9322L12.2612 7.90267ZM9.11226 11.069C9.24141 11.069 9.36282 11.0394 9.47382 10.9944C9.44827 11.0224 9.42303 11.0495 9.39807 11.0756C8.98309 11.5099 8.71175 11.6107 8.47923 11.6107C8.27551 11.6107 8.1084 11.4701 8.11237 11.2001C8.1143 11.0743 8.16882 10.9501 8.25326 10.8561C8.29484 10.8099 8.33206 10.7827 8.35973 10.7669C8.3643 10.7712 8.3691 10.7759 8.37411 10.7809L8.37644 10.7831C8.5937 10.9958 8.87532 11.069 9.11226 11.069Z" stroke="#3084F2"/>
</svg>
