<svg width="16" height="16" viewBox="0 0 16 16" fill="none" xmlns="http://www.w3.org/2000/svg">
<path d="M15.0013 1.6665H1.66797V14.9998H15.0013V1.6665Z" stroke="#3084F2" stroke-miterlimit="10" stroke-linecap="square"/>
<path d="M5.66927 4.33301H4.33594V5.66634H5.66927V4.33301Z" fill="#3084F2"/>
<path d="M9.0013 4.33301H7.66797V5.66634H9.0013V4.33301Z" fill="#3084F2"/>
<path d="M12.3333 4.33301H11V5.66634H12.3333V4.33301Z" fill="#3084F2"/>
<path d="M5.66927 7.6665H4.33594V8.99984H5.66927V7.6665Z" fill="#3084F2"/>
<path d="M9.0013 7.6665H7.66797V8.99984H9.0013V7.6665Z" fill="#3084F2"/>
<path d="M12.3333 7.6665H11V8.99984H12.3333V7.6665Z" fill="#3084F2"/>
<path d="M5.66927 11H4.33594V12.3333H5.66927V11Z" fill="#3084F2"/>
<path d="M9.0013 11H7.66797V12.3333H9.0013V11Z" fill="#3084F2"/>
<path d="M12.3333 11H11V12.3333H12.3333V11Z" fill="#3084F2"/>
</svg>
