<svg width="23" height="17" viewBox="0 0 23 17" fill="none" xmlns="http://www.w3.org/2000/svg">
<path d="M4.5 2.5H9.5" stroke="#3084F2" stroke-miterlimit="10" stroke-linecap="square"/>
<path d="M13.5 2.5H18.5" stroke="#3084F2" stroke-miterlimit="10" stroke-linecap="square"/>
<path d="M13.5 3.7002C17.5 4.6002 20.5 8.2002 20.5 12.5002" stroke="#3084F2" stroke-miterlimit="10"/>
<path d="M2.5 12.5002C2.5 8.2002 5.5 4.6002 9.5 3.7002" stroke="#3084F2" stroke-miterlimit="10"/>
<path d="M2.5 4.5C3.60457 4.5 4.5 3.60457 4.5 2.5C4.5 1.39543 3.60457 0.5 2.5 0.5C1.39543 0.5 0.5 1.39543 0.5 2.5C0.5 3.60457 1.39543 4.5 2.5 4.5Z" stroke="#3084F2" stroke-miterlimit="10" stroke-linecap="square"/>
<path d="M20.5 4.5C21.6046 4.5 22.5 3.60457 22.5 2.5C22.5 1.39543 21.6046 0.5 20.5 0.5C19.3954 0.5 18.5 1.39543 18.5 2.5C18.5 3.60457 19.3954 4.5 20.5 4.5Z" stroke="#3084F2" stroke-miterlimit="10" stroke-linecap="square"/>
<path d="M13.5 0.5H9.5V4.5H13.5V0.5Z" stroke="#3084F2" stroke-miterlimit="10" stroke-linecap="square"/>
<path d="M4.5 12.5H0.5V16.5H4.5V12.5Z" stroke="#808D97" stroke-miterlimit="10" stroke-linecap="square"/>
<path d="M22.5 12.5H18.5V16.5H22.5V12.5Z" stroke="#808D97" stroke-miterlimit="10" stroke-linecap="square"/>
</svg>
