<svg width="24" height="24" viewBox="0 0 24 24" fill="none" xmlns="http://www.w3.org/2000/svg">
<path d="M22.5 2.5H2.5V22.5H22.5V2.5Z" stroke="#808D97" stroke-miterlimit="10" stroke-linecap="square"/>
<path d="M16.5 15.5V18.5" stroke="#808D97" stroke-miterlimit="10" stroke-linecap="square"/>
<path d="M16.5 6.5V8.5" stroke="#808D97" stroke-miterlimit="10" stroke-linecap="square"/>
<path d="M16.5 12.5C17.6046 12.5 18.5 11.6046 18.5 10.5C18.5 9.39543 17.6046 8.5 16.5 8.5C15.3954 8.5 14.5 9.39543 14.5 10.5C14.5 11.6046 15.3954 12.5 16.5 12.5Z" stroke="#808D97" stroke-miterlimit="10" stroke-linecap="square"/>
<path d="M8.5 6.5V9.5" stroke="#808D97" stroke-miterlimit="10" stroke-linecap="square"/>
<path d="M8.5 16.5V18.5" stroke="#808D97" stroke-miterlimit="10" stroke-linecap="square"/>
<path d="M8.5 16.5C9.60457 16.5 10.5 15.6046 10.5 14.5C10.5 13.3954 9.60457 12.5 8.5 12.5C7.39543 12.5 6.5 13.3954 6.5 14.5C6.5 15.6046 7.39543 16.5 8.5 16.5Z" stroke="#808D97" stroke-miterlimit="10" stroke-linecap="square"/>
</svg>
