<svg width="22" height="22" viewBox="0 0 22 22" fill="none" xmlns="http://www.w3.org/2000/svg">
<path d="M7.5 1.5H1.5C0.947715 1.5 0.5 1.94772 0.5 2.5V8.5C0.5 9.05228 0.947715 9.5 1.5 9.5H7.5C8.05228 9.5 8.5 9.05228 8.5 8.5V2.5C8.5 1.94772 8.05228 1.5 7.5 1.5Z" stroke="#808D97" stroke-miterlimit="10" stroke-linecap="square"/>
<path d="M15.8261 0.778867L11.78 4.82493C11.4075 5.19749 11.4075 5.80153 11.78 6.17409L15.8261 10.2202C16.1987 10.5927 16.8027 10.5927 17.1753 10.2202L21.2213 6.17409C21.5939 5.80153 21.5939 5.19749 21.2213 4.82493L17.1753 0.778867C16.8027 0.406307 16.1987 0.406307 15.8261 0.778867Z" stroke="#808D97" stroke-miterlimit="10" stroke-linecap="square"/>
<path d="M19.5 13.5H13.5C12.9477 13.5 12.5 13.9477 12.5 14.5V20.5C12.5 21.0523 12.9477 21.5 13.5 21.5H19.5C20.0523 21.5 20.5 21.0523 20.5 20.5V14.5C20.5 13.9477 20.0523 13.5 19.5 13.5Z" stroke="#808D97" stroke-miterlimit="10" stroke-linecap="square"/>
<path d="M7.5 13.5H1.5C0.947715 13.5 0.5 13.9477 0.5 14.5V20.5C0.5 21.0523 0.947715 21.5 1.5 21.5H7.5C8.05228 21.5 8.5 21.0523 8.5 20.5V14.5C8.5 13.9477 8.05228 13.5 7.5 13.5Z" stroke="#808D97" stroke-miterlimit="10" stroke-linecap="square"/>
</svg>
